<?xml version="1.0" standalone="no"?>
<!DOCTYPE svg PUBLIC "-//W3C//DTD SVG 20010904//EN"
 "http://www.w3.org/TR/2001/REC-SVG-20010904/DTD/svg10.dtd">
<svg version="1.0" xmlns="http://www.w3.org/2000/svg"
 width="677.000000pt" height="369.000000pt" viewBox="0 0 677.000000 369.000000"
 preserveAspectRatio="xMidYMid meet">
<metadata>
Created by potrace 1.16, written by Peter Selinger 2001-2019
</metadata>
<g transform="translate(0.000000,369.000000) scale(0.100000,-0.100000)"
fill="#000000" stroke="none">
<path d="M3168 3180 c-169 -21 -488 -165 -598 -270 -9 -8 -42 -37 -73 -65 -65
-56 -177 -185 -220 -253 -83 -132 -155 -306 -194 -472 -27 -116 -24 -466 5
-571 71 -256 176 -453 326 -609 115 -119 258 -227 372 -279 23 -11 65 -30 95
-44 67 -32 269 -84 369 -95 94 -11 266 -7 345 9 113 22 261 68 350 110 50 23
92 45 95 48 3 4 39 28 80 53 218 135 415 382 510 638 67 181 73 217 75 440 2
222 -3 267 -55 435 -78 253 -221 463 -446 653 -85 71 -248 165 -350 202 -68
25 -212 67 -234 69 -81 7 -400 8 -452 1z m403 -481 c70 -24 135 -106 141 -179
l3 -45 -42 -3 c-39 -3 -41 -2 -48 30 -10 47 -42 88 -81 104 -22 9 -74 14 -159
14 -85 0 -137 -5 -159 -14 -38 -16 -73 -61 -82 -105 -6 -29 -9 -31 -50 -31
-49 0 -48 -1 -33 68 13 61 66 127 123 153 34 15 67 19 197 19 90 0 170 -5 190
-11z m592 -298 c24 -11 49 -34 65 -62 l27 -44 3 -535 c3 -480 1 -540 -14 -580
-9 -25 -26 -56 -38 -69 -46 -52 -31 -51 -813 -51 -463 0 -741 4 -765 10 -45
13 -94 66 -108 119 -7 27 -10 219 -8 575 l3 534 30 43 c60 84 4 79 840 79 693
-1 742 -2 778 -19z"/>
<path d="M2663 2360 c-18 -4 -40 -14 -49 -21 -43 -35 -44 -55 -44 -599 0 -575
0 -572 62 -610 32 -19 49 -20 753 -20 704 0 721 1 753 20 63 39 63 34 60 625
-3 524 -3 534 -24 562 -13 18 -37 32 -65 40 -51 13 -1391 16 -1446 3z m854
-191 c69 -45 86 -81 81 -170 -3 -49 0 -70 9 -73 30 -12 4 -116 -32 -129 -8 -4
-15 -16 -15 -27 0 -25 -23 -72 -44 -89 -10 -9 -16 -30 -16 -58 l0 -44 93 -43
c50 -23 108 -49 127 -56 60 -23 108 -77 115 -129 4 -25 9 -54 12 -63 4 -17
-23 -18 -461 -18 l-465 0 5 38 c10 71 15 83 50 122 23 26 53 45 87 56 64 21
189 82 199 98 16 24 8 78 -17 107 -13 16 -28 44 -33 62 -5 18 -21 46 -36 61
-27 30 -37 98 -16 111 6 3 10 35 10 69 0 147 78 219 230 212 54 -2 74 -8 117
-37z"/>
</g>
</svg>
